<svg width="400" height="240" viewBox="0 0 400 240" fill="none" xmlns="http://www.w3.org/2000/svg">
<rect x="124.373" y="218.174" width="6.78181" height="45.2121" rx="3.3909" transform="rotate(-110.482 124.373 218.174)" fill="#040000"/>
<rect x="210.512" y="128.6" width="6.78181" height="33.909" rx="3.3909" transform="rotate(-125.993 210.512 128.6)" fill="#040000"/>
<rect x="195.012" y="96.2474" width="13.5636" height="33.909" rx="6.78181" transform="rotate(-13.8435 195.012 96.2474)" fill="black"/>
<rect x="212.724" y="236.71" width="6.78181" height="45.2121" rx="3.3909" transform="rotate(-172.52 212.724 236.71)" fill="#040000"/>
<rect x="208.482" y="236.93" width="6.78181" height="18.0848" rx="3.3909" transform="rotate(-111.467 208.482 236.93)" fill="black"/>
<rect x="133.324" y="229.441" width="6.78181" height="18.0848" rx="3.3909" transform="rotate(164.662 133.324 229.441)" fill="black"/>
<rect x="167.936" y="202.934" width="9.04241" height="56.5151" rx="4.52121" transform="rotate(-151.358 167.936 202.934)" fill="black"/>
<rect x="220.666" y="195.209" width="9.04241" height="56.5151" rx="4.52121" transform="rotate(150.543 220.666 195.209)" fill="black"/>
<rect x="192.735" y="81.5728" width="15.8242" height="70.9765" rx="7.91211" transform="rotate(10.4818 192.735 81.5728)" fill="black"/>
<rect x="190.084" y="89" width="13.5636" height="33.909" rx="6.78181" transform="rotate(66.4478 190.084 89)" fill="black"/>
<ellipse cx="21.4149" cy="11.4767" rx="21.4149" ry="11.4767" transform="matrix(0.612538 -0.790441 0.788835 0.614606 168.732 128.697)" fill="#815337"/>
<rect x="182.785" y="126.885" width="22.4029" height="3.06048" rx="1.53024" transform="rotate(-51.6461 182.785 126.885)" fill="#D9D9D9"/>
<rect x="188.621" y="128.142" width="7.65121" height="1.31782" rx="0.65891" transform="rotate(-141.646 188.621 128.142)" fill="#D9D9D9"/>
<rect x="193.323" y="122.2" width="7.65121" height="1.31782" rx="0.65891" transform="rotate(-141.646 193.323 122.2)" fill="#D9D9D9"/>
<rect x="191.278" y="124.783" width="7.65121" height="1.31782" rx="0.65891" transform="rotate(-141.646 191.278 124.783)" fill="#D9D9D9"/>
<rect x="195.367" y="119.616" width="7.65121" height="1.31782" rx="0.65891" transform="rotate(-141.646 195.367 119.616)" fill="#D9D9D9"/>
<rect x="197.82" y="116.516" width="7.65121" height="1.31782" rx="0.65891" transform="rotate(-141.646 197.82 116.516)" fill="#D9D9D9"/>
<rect x="198.82" y="126.038" width="6.78181" height="33.909" rx="3.3909" transform="rotate(123.984 198.82 126.038)" fill="#040000"/>

</svg>
