<svg width="400" height="240" viewBox="0 0 400 240" fill="none" xmlns="http://www.w3.org/2000/svg">
<rect x="210.735" y="237.695" width="6.78181" height="45.2121" rx="3.3909" transform="rotate(-173.268 210.735 237.695)" fill="#040000"/>
<rect x="216.965" y="120.346" width="6.78181" height="33.909" rx="3.3909" transform="rotate(-117.912 216.965 120.346)" fill="#040000"/>
<rect x="196" y="96.173" width="13.5636" height="33.909" rx="6.78181" transform="rotate(-31.9274 196 96.173)" fill="black"/>
<rect x="216.722" y="196.75" width="9.04241" height="56.5151" rx="4.52121" transform="rotate(158.969 216.722 196.75)" fill="black"/>
<rect x="138" y="195.545" width="6.78181" height="45.2121" rx="3.3909" transform="rotate(-81.427 138 195.545)" fill="#040000"/>
<rect x="137" y="191.02" width="6.78181" height="18.0848" rx="3.3909" transform="rotate(-0.172736 137 191.02)" fill="black"/>
<rect x="222.08" y="230" width="6.78181" height="18.0848" rx="3.3909" transform="rotate(88.6391 222.08 230)" fill="black"/>
<rect x="187.2" y="200.735" width="9.04241" height="56.5151" rx="4.52121" transform="rotate(-177.465 187.2 200.735)" fill="black"/>
<rect x="192.735" y="81.5728" width="15.8242" height="70.9765" rx="7.91211" transform="rotate(10.4818 192.735 81.5728)" fill="black"/>

<rect x="192.084" y="90" width="13.5636" height="33.909" rx="6.78181" transform="rotate(66.4478 192.084 90)" fill="black"/>
<ellipse cx="21.4149" cy="11.4767" rx="21.4149" ry="11.4767" transform="matrix(0.612538 -0.790441 0.788835 0.614606 170.733 129.697)" fill="#815337"/>
<rect x="184.785" y="127.885" width="22.4029" height="3.06048" rx="1.53024" transform="rotate(-51.6461 184.785 127.885)" fill="#D9D9D9"/>
<rect x="190.621" y="129.142" width="7.65121" height="1.31782" rx="0.65891" transform="rotate(-141.646 190.621 129.142)" fill="#D9D9D9"/>
<rect x="195.323" y="123.2" width="7.65121" height="1.31782" rx="0.65891" transform="rotate(-141.646 195.323 123.2)" fill="#D9D9D9"/>
<rect x="193.279" y="125.783" width="7.65121" height="1.31782" rx="0.65891" transform="rotate(-141.646 193.279 125.783)" fill="#D9D9D9"/>
<rect x="197.367" y="120.616" width="7.65121" height="1.31782" rx="0.65891" transform="rotate(-141.646 197.367 120.616)" fill="#D9D9D9"/>
<rect x="199.82" y="117.516" width="7.65121" height="1.31782" rx="0.65891" transform="rotate(-141.646 199.82 117.516)" fill="#D9D9D9"/>
<rect x="200.82" y="127.038" width="6.78181" height="33.909" rx="3.3909" transform="rotate(123.984 200.82 127.038)" fill="#040000"/>
</svg>
