<svg width="400" height="241" viewBox="0 0 400 241" fill="none" xmlns="http://www.w3.org/2000/svg">
<rect x="240.115" y="235.796" width="6.78181" height="45.2121" rx="3.3909" transform="rotate(153.286 240.115 235.796)" fill="#040000"/>
<rect x="227.733" y="115.988" width="6.78181" height="33.909" rx="3.3909" transform="rotate(-158.065 227.733 115.988)" fill="#040000"/>
<rect x="195.647" y="101.398" width="13.5636" height="33.909" rx="6.78181" transform="rotate(-53.5352 195.647 101.398)" fill="black"/>
<rect x="221.364" y="197.109" width="9.04241" height="56.5151" rx="4.52121" transform="rotate(152.569 221.364 197.109)" fill="black"/>
<rect x="121.362" y="211.793" width="6.78181" height="45.2121" rx="3.3909" transform="rotate(-112.279 121.362 211.793)" fill="#040000"/>
<rect x="120.426" y="203.323" width="6.78181" height="18.0848" rx="3.3909" transform="rotate(27.77 120.426 203.323)" fill="black"/>
<rect x="191.692" y="90.2922" width="13.5636" height="33.909" rx="6.78181" transform="rotate(66.4478 191.692 90.2922)" fill="black"/>
<rect x="247.895" y="225.928" width="6.78181" height="18.0848" rx="3.3909" transform="rotate(62.7556 247.895 225.928)" fill="black"/>
<rect x="160.526" y="197.093" width="9.04241" height="56.5151" rx="4.52121" transform="rotate(-145.217 160.526 197.093)" fill="black"/>
<rect x="192.735" y="81.5728" width="15.8242" height="70.9765" rx="7.91211" transform="rotate(10.4818 192.735 81.5728)" fill="black"/>

<ellipse cx="21.4149" cy="11.4767" rx="21.4149" ry="11.4767" transform="matrix(0.612538 -0.790441 0.788835 0.614606 170.34 129.99)" fill="#815337"/>
<rect x="184.393" y="128.178" width="22.4029" height="3.06048" rx="1.53024" transform="rotate(-51.6461 184.393 128.178)" fill="#D9D9D9"/>
<rect x="190.229" y="129.434" width="7.65121" height="1.31782" rx="0.65891" transform="rotate(-141.646 190.229 129.434)" fill="#D9D9D9"/>
<rect x="194.931" y="123.492" width="7.65121" height="1.31782" rx="0.65891" transform="rotate(-141.646 194.931 123.492)" fill="#D9D9D9"/>
<rect x="192.886" y="126.076" width="7.65121" height="1.31782" rx="0.65891" transform="rotate(-141.646 192.886 126.076)" fill="#D9D9D9"/>
<rect x="196.975" y="120.908" width="7.65121" height="1.31782" rx="0.65891" transform="rotate(-141.646 196.975 120.908)" fill="#D9D9D9"/>
<rect x="199.428" y="117.808" width="7.65121" height="1.31782" rx="0.65891" transform="rotate(-141.646 199.428 117.808)" fill="#D9D9D9"/>
<rect x="200.428" y="127.331" width="6.78181" height="33.909" rx="3.3909" transform="rotate(123.984 200.428 127.331)" fill="#040000"/>
</svg>
