<svg width="400" height="240" viewBox="0 0 400 240" fill="none" xmlns="http://www.w3.org/2000/svg">
<rect x="236.543" y="234.864" width="6.78181" height="45.2121" rx="3.3909" transform="rotate(163.645 236.543 234.864)" fill="#040000"/>
<rect x="231.469" y="112.278" width="6.78181" height="33.909" rx="3.3909" transform="rotate(-167.191 231.469 112.278)" fill="#040000"/>
<rect x="197.092" y="102.815" width="13.5636" height="33.909" rx="6.78181" transform="rotate(-64.4149 197.092 102.815)" fill="black"/>
<rect x="226.95" y="192.947" width="9.04241" height="56.5151" rx="4.52121" transform="rotate(145.818 226.95 192.947)" fill="black"/>
<rect x="124.747" y="210.515" width="6.78181" height="45.2121" rx="3.3909" transform="rotate(-103.111 124.747 210.515)" fill="#040000"/>
<rect x="122.278" y="202.292" width="6.78181" height="18.0848" rx="3.3909" transform="rotate(15 122.278 202.292)" fill="black"/>
<rect x="246.291" y="226.503" width="6.78181" height="18.0848" rx="3.3909" transform="rotate(75.2662 246.291 226.503)" fill="black"/>
<rect x="169.517" y="200.405" width="9.04241" height="56.5151" rx="4.52121" transform="rotate(-160 169.517 200.405)" fill="black"/>
<rect x="192.735" y="81.5728" width="15.8242" height="70.9765" rx="7.91211" transform="rotate(10.4818 192.735 81.5728)" fill="black"/>

<rect x="192.084" y="89" width="13.5636" height="33.909" rx="6.78181" transform="rotate(66.4478 192.084 89)" fill="black"/>
<ellipse cx="21.4149" cy="11.4767" rx="21.4149" ry="11.4767" transform="matrix(0.612538 -0.790441 0.788835 0.614606 170.732 128.697)" fill="#815337"/>
<rect x="184.785" y="126.885" width="22.4029" height="3.06048" rx="1.53024" transform="rotate(-51.6461 184.785 126.885)" fill="#D9D9D9"/>
<rect x="190.621" y="128.142" width="7.65121" height="1.31782" rx="0.65891" transform="rotate(-141.646 190.621 128.142)" fill="#D9D9D9"/>
<rect x="195.323" y="122.2" width="7.65121" height="1.31782" rx="0.65891" transform="rotate(-141.646 195.323 122.2)" fill="#D9D9D9"/>
<rect x="193.278" y="124.783" width="7.65121" height="1.31782" rx="0.65891" transform="rotate(-141.646 193.278 124.783)" fill="#D9D9D9"/>
<rect x="197.367" y="119.616" width="7.65121" height="1.31782" rx="0.65891" transform="rotate(-141.646 197.367 119.616)" fill="#D9D9D9"/>
<rect x="199.82" y="116.516" width="7.65121" height="1.31782" rx="0.65891" transform="rotate(-141.646 199.82 116.516)" fill="#D9D9D9"/>
<rect x="200.82" y="126.038" width="6.78181" height="33.909" rx="3.3909" transform="rotate(123.984 200.82 126.038)" fill="#040000"/>
</svg>
