<svg width="400" height="240" viewBox="0 0 400 240" fill="none" xmlns="http://www.w3.org/2000/svg">
<rect x="148.079" y="238.727" width="6.78181" height="45.2121" rx="3.3909" transform="rotate(-151.864 148.079 238.727)" fill="#040000"/>
<rect x="191.47" y="126.116" width="6.78181" height="33.909" rx="3.3909" transform="rotate(-93.9745 191.47 126.116)" fill="#040000"/>
<rect x="196.963" y="90.8535" width="13.5636" height="33.909" rx="6.78181" transform="rotate(28.8497 196.963 90.8535)" fill="black"/>
<rect x="173" y="198.78" width="6.78181" height="45.2121" rx="3.3909" transform="rotate(-88.6281 173 198.78)" fill="#040000"/>
<rect x="172" y="192.772" width="6.78181" height="18.0848" rx="3.3909" transform="rotate(-15.1478 172 192.772)" fill="black"/>
<rect x="162.08" y="232" width="6.78181" height="18.0848" rx="3.3909" transform="rotate(88.6391 162.08 232)" fill="black"/>
<rect x="167.936" y="202.934" width="9.04241" height="56.5151" rx="4.52121" transform="rotate(-151.358 167.936 202.934)" fill="black"/>
<rect x="220.666" y="195.209" width="9.04241" height="56.5151" rx="4.52121" transform="rotate(150.543 220.666 195.209)" fill="black"/>
<rect x="192.735" y="81.5728" width="15.8242" height="70.9765" rx="7.91211" transform="rotate(10.4818 192.735 81.5728)" fill="black"/>
<rect x="190.084" y="89" width="13.5636" height="33.909" rx="6.78181" transform="rotate(66.4478 190.084 89)" fill="black"/>
<ellipse cx="21.4149" cy="11.4767" rx="21.4149" ry="11.4767" transform="matrix(0.612538 -0.790441 0.788835 0.614606 168.733 128.697)" fill="#815337"/>
<rect x="182.785" y="126.885" width="22.4029" height="3.06048" rx="1.53024" transform="rotate(-51.6461 182.785 126.885)" fill="#D9D9D9"/>
<rect x="188.621" y="128.142" width="7.65121" height="1.31782" rx="0.65891" transform="rotate(-141.646 188.621 128.142)" fill="#D9D9D9"/>
<rect x="193.323" y="122.2" width="7.65121" height="1.31782" rx="0.65891" transform="rotate(-141.646 193.323 122.2)" fill="#D9D9D9"/>
<rect x="191.279" y="124.783" width="7.65121" height="1.31782" rx="0.65891" transform="rotate(-141.646 191.279 124.783)" fill="#D9D9D9"/>
<rect x="195.367" y="119.616" width="7.65121" height="1.31782" rx="0.65891" transform="rotate(-141.646 195.367 119.616)" fill="#D9D9D9"/>
<rect x="197.82" y="116.516" width="7.65121" height="1.31782" rx="0.65891" transform="rotate(-141.646 197.82 116.516)" fill="#D9D9D9"/>
<rect x="198.82" y="126.038" width="6.78181" height="33.909" rx="3.3909" transform="rotate(123.984 198.82 126.038)" fill="#040000"/>

</svg>
