<svg width="400" height="240" viewBox="0 0 400 240" fill="none" xmlns="http://www.w3.org/2000/svg">
<rect x="219.735" y="237.695" width="6.78181" height="45.2121" rx="3.3909" transform="rotate(-173.268 219.735 237.695)" fill="#040000"/>
<rect x="224.809" y="118.826" width="6.78181" height="33.909" rx="3.3909" transform="rotate(-135.159 224.809 118.826)" fill="#040000"/>
<rect x="197" y="99.0121" width="13.5636" height="33.909" rx="6.78181" transform="rotate(-47.575 197 99.0121)" fill="black"/>
<rect x="226.95" y="192.947" width="9.04241" height="56.5151" rx="4.52121" transform="rotate(145.818 226.95 192.947)" fill="black"/>
<rect x="131.962" y="206.124" width="6.78181" height="45.2121" rx="3.3909" transform="rotate(-98.1521 131.962 206.124)" fill="#040000"/>
<rect x="128" y="201.02" width="6.78181" height="18.0848" rx="3.3909" transform="rotate(-0.172736 128 201.02)" fill="black"/>
<rect x="231.08" y="230" width="6.78181" height="18.0848" rx="3.3909" transform="rotate(88.6391 231.08 230)" fill="black"/>
<rect x="180.484" y="200.919" width="9.04241" height="56.5151" rx="4.52121" transform="rotate(-170.01 180.484 200.919)" fill="black"/>
<rect x="192.735" y="81.5728" width="15.8242" height="70.9765" rx="7.91211" transform="rotate(10.4818 192.735 81.5728)" fill="black"/>

<rect x="192.084" y="89" width="13.5636" height="33.909" rx="6.78181" transform="rotate(66.4478 192.084 89)" fill="black"/>
<ellipse cx="21.4149" cy="11.4767" rx="21.4149" ry="11.4767" transform="matrix(0.612538 -0.790441 0.788835 0.614606 170.733 128.697)" fill="#815337"/>
<rect x="184.785" y="126.885" width="22.4029" height="3.06048" rx="1.53024" transform="rotate(-51.6461 184.785 126.885)" fill="#D9D9D9"/>
<rect x="190.621" y="128.142" width="7.65121" height="1.31782" rx="0.65891" transform="rotate(-141.646 190.621 128.142)" fill="#D9D9D9"/>
<rect x="195.323" y="122.2" width="7.65121" height="1.31782" rx="0.65891" transform="rotate(-141.646 195.323 122.2)" fill="#D9D9D9"/>
<rect x="193.278" y="124.783" width="7.65121" height="1.31782" rx="0.65891" transform="rotate(-141.646 193.278 124.783)" fill="#D9D9D9"/>
<rect x="197.367" y="119.616" width="7.65121" height="1.31782" rx="0.65891" transform="rotate(-141.646 197.367 119.616)" fill="#D9D9D9"/>
<rect x="199.82" y="116.516" width="7.65121" height="1.31782" rx="0.65891" transform="rotate(-141.646 199.82 116.516)" fill="#D9D9D9"/>
<rect x="200.82" y="126.038" width="6.78181" height="33.909" rx="3.3909" transform="rotate(123.984 200.82 126.038)" fill="#040000"/>
</svg>
