<svg width="400" height="240" viewBox="0 0 400 240" fill="none" xmlns="http://www.w3.org/2000/svg">
<rect x="196.735" y="237.695" width="6.78181" height="45.2121" rx="3.3909" transform="rotate(-173.268 196.735 237.695)" fill="#040000"/>
<rect x="216.175" y="123.866" width="6.78181" height="33.909" rx="3.3909" transform="rotate(-117.912 216.175 123.866)" fill="#040000"/>
<rect x="196.64" y="94.4628" width="13.5636" height="33.909" rx="6.78181" transform="rotate(-15.5631 196.64 94.4628)" fill="black"/>
<rect x="146" y="195.545" width="6.78181" height="45.2121" rx="3.3909" transform="rotate(-81.427 146 195.545)" fill="#040000"/>
<rect x="144.782" y="190.21" width="6.78181" height="18.0848" rx="3.3909" transform="rotate(-15.1478 144.782 190.21)" fill="black"/>
<rect x="208.08" y="230" width="6.78181" height="18.0848" rx="3.3909" transform="rotate(88.6391 208.08 230)" fill="black"/>
<rect x="203.197" y="200.635" width="9.04241" height="56.5151" rx="4.52121" transform="rotate(165.18 203.197 200.635)" fill="black"/>
<rect x="193.038" y="203.767" width="9.04241" height="56.5151" rx="4.52121" transform="rotate(-178.232 193.038 203.767)" fill="black"/>
<rect x="192.735" y="81.5728" width="15.8242" height="70.9765" rx="7.91211" transform="rotate(10.4818 192.735 81.5728)" fill="black"/>
<rect x="190.084" y="89" width="13.5636" height="33.909" rx="6.78181" transform="rotate(66.4478 190.084 89)" fill="black"/>
<ellipse cx="21.4149" cy="11.4767" rx="21.4149" ry="11.4767" transform="matrix(0.612538 -0.790441 0.788835 0.614606 168.732 128.697)" fill="#815337"/>
<rect x="182.785" y="126.885" width="22.4029" height="3.06048" rx="1.53024" transform="rotate(-51.6461 182.785 126.885)" fill="#D9D9D9"/>
<rect x="188.621" y="128.142" width="7.65121" height="1.31782" rx="0.65891" transform="rotate(-141.646 188.621 128.142)" fill="#D9D9D9"/>
<rect x="193.323" y="122.2" width="7.65121" height="1.31782" rx="0.65891" transform="rotate(-141.646 193.323 122.2)" fill="#D9D9D9"/>
<rect x="191.278" y="124.783" width="7.65121" height="1.31782" rx="0.65891" transform="rotate(-141.646 191.278 124.783)" fill="#D9D9D9"/>
<rect x="195.367" y="119.616" width="7.65121" height="1.31782" rx="0.65891" transform="rotate(-141.646 195.367 119.616)" fill="#D9D9D9"/>
<rect x="197.82" y="116.516" width="7.65121" height="1.31782" rx="0.65891" transform="rotate(-141.646 197.82 116.516)" fill="#D9D9D9"/>
<rect x="198.82" y="126.038" width="6.78181" height="33.909" rx="3.3909" transform="rotate(123.984 198.82 126.038)" fill="#040000"/>

</svg>
