<svg width="400" height="240" viewBox="0 0 400 240" fill="none" xmlns="http://www.w3.org/2000/svg">
<rect width="6.78181" height="45.2121" rx="3.3909" transform="matrix(0.0497066 -0.998764 -0.998764 -0.0497067 293.046 194.597)" fill="#040000"/>
<rect width="6.78181" height="33.909" rx="3.3909" transform="matrix(0.757847 -0.652433 -0.652433 -0.757847 184.86 121.123)" fill="#040000"/>
<rect width="13.5636" height="33.909" rx="6.78181" transform="matrix(-0.884373 -0.46678 -0.46678 0.884373 208.258 99.2582)" fill="black"/>
<rect width="6.78181" height="45.2121" rx="3.3909" transform="matrix(0.953911 0.300088 0.300088 -0.953911 157.963 234.128)" fill="#040000"/>
<rect width="6.78181" height="18.0848" rx="3.3909" transform="matrix(0.0023117 -0.999997 -0.999997 -0.00231165 163.378 237.877)" fill="black"/>
<rect width="6.78181" height="18.0848" rx="3.3909" transform="matrix(0.805998 -0.591918 -0.591918 -0.805998 298.534 206.591)" fill="black"/>
<rect width="9.04241" height="56.5151" rx="4.52121" transform="matrix(0.673842 -0.738876 -0.738876 -0.673842 250.32 193.349)" fill="black"/>
<rect width="9.04241" height="56.5151" rx="4.52121" transform="matrix(0.760315 0.649554 0.649555 -0.760315 168.375 190.376)" fill="black"/>
<rect width="15.8242" height="70.9765" rx="7.91211" transform="matrix(-0.983313 0.181924 0.181924 0.983313 207.265 81.5728)" fill="black"/>
<rect width="13.5636" height="33.909" rx="6.78181" transform="matrix(-0.399584 0.916696 0.916696 0.399584 209.916 89)" fill="black"/>
<ellipse cx="21.4149" cy="11.4767" rx="21.4149" ry="11.4767" transform="matrix(-0.612538 -0.790441 -0.788835 0.614606 231.268 128.697)" fill="#815337"/>
<rect width="22.4029" height="3.06048" rx="1.53024" transform="matrix(-0.620517 -0.784193 -0.784193 0.620517 217.215 126.885)" fill="#D9D9D9"/>
<rect width="7.65121" height="1.31782" rx="0.65891" transform="matrix(0.784193 -0.620517 -0.620517 -0.784193 211.379 128.142)" fill="#D9D9D9"/>
<rect width="7.65121" height="1.31782" rx="0.65891" transform="matrix(0.784193 -0.620517 -0.620517 -0.784193 206.677 122.2)" fill="#D9D9D9"/>
<rect width="7.65121" height="1.31782" rx="0.65891" transform="matrix(0.784193 -0.620517 -0.620517 -0.784193 208.722 124.783)" fill="#D9D9D9"/>
<rect width="7.65121" height="1.31782" rx="0.65891" transform="matrix(0.784193 -0.620517 -0.620517 -0.784193 204.633 119.616)" fill="#D9D9D9"/>
<rect width="7.65121" height="1.31782" rx="0.65891" transform="matrix(0.784193 -0.620517 -0.620517 -0.784193 202.18 116.516)" fill="#D9D9D9"/>
<rect width="6.78181" height="33.909" rx="3.3909" transform="matrix(0.558955 0.829198 0.829198 -0.558955 201.18 126.038)" fill="#040000"/>

</svg>
