<svg width="400" height="240" viewBox="0 0 400 240" fill="none" xmlns="http://www.w3.org/2000/svg">
<rect width="6.78181" height="45.2121" rx="3.3909" transform="matrix(0.679428 -0.733742 -0.733742 -0.679428 261.534 228.04)" fill="#040000"/>
<rect width="6.78181" height="33.909" rx="3.3909" transform="matrix(0.273115 -0.961981 -0.961981 -0.273115 195.148 125.785)" fill="#040000"/>
<rect width="13.5636" height="33.909" rx="6.78181" transform="matrix(-0.970762 0.240045 0.240045 0.970762 196.86 93)" fill="black"/>
<rect width="6.78181" height="45.2121" rx="3.3909" transform="matrix(0.37821 -0.92572 -0.92572 -0.37821 222.964 213.62)" fill="#040000"/>
<rect width="6.78181" height="18.0848" rx="3.3909" transform="matrix(-0.779374 -0.626559 -0.626559 0.779374 225.672 207.692)" fill="black"/>
<rect width="6.78181" height="18.0848" rx="3.3909" transform="matrix(0.616281 0.787526 0.787526 -0.616281 247.578 231.145)" fill="black"/>
<rect width="9.04241" height="56.5151" rx="4.52121" transform="matrix(0.877631 -0.479338 -0.479338 -0.87763 232.064 202.934)" fill="black"/>
<rect width="9.04241" height="56.5151" rx="4.52121" transform="matrix(0.870728 0.491764 0.491764 -0.870728 179.334 195.209)" fill="black"/>
<rect width="15.8242" height="70.9765" rx="7.91211" transform="matrix(-0.983313 0.181924 0.181924 0.983313 207.265 81.5728)" fill="black"/>
<rect width="13.5636" height="33.909" rx="6.78181" transform="matrix(-0.399584 0.916696 0.916696 0.399584 209.916 89)" fill="black"/>
<ellipse cx="21.4149" cy="11.4767" rx="21.4149" ry="11.4767" transform="matrix(-0.612538 -0.790441 -0.788835 0.614606 231.268 128.697)" fill="#815337"/>
<rect width="22.4029" height="3.06048" rx="1.53024" transform="matrix(-0.620517 -0.784193 -0.784193 0.620517 217.215 126.885)" fill="#D9D9D9"/>
<rect width="7.65121" height="1.31782" rx="0.65891" transform="matrix(0.784193 -0.620517 -0.620517 -0.784193 211.379 128.142)" fill="#D9D9D9"/>
<rect width="7.65121" height="1.31782" rx="0.65891" transform="matrix(0.784193 -0.620517 -0.620517 -0.784193 206.677 122.2)" fill="#D9D9D9"/>
<rect width="7.65121" height="1.31782" rx="0.65891" transform="matrix(0.784193 -0.620517 -0.620517 -0.784193 208.722 124.783)" fill="#D9D9D9"/>
<rect width="7.65121" height="1.31782" rx="0.65891" transform="matrix(0.784193 -0.620517 -0.620517 -0.784193 204.633 119.616)" fill="#D9D9D9"/>
<rect width="7.65121" height="1.31782" rx="0.65891" transform="matrix(0.784193 -0.620517 -0.620517 -0.784193 202.18 116.516)" fill="#D9D9D9"/>
<rect width="6.78181" height="33.909" rx="3.3909" transform="matrix(0.558955 0.829198 0.829198 -0.558955 201.18 126.038)" fill="#040000"/>

</svg>
