<svg width="29" height="51" viewBox="0 0 29 51" fill="none" xmlns="http://www.w3.org/2000/svg">
<ellipse cx="24.8009" cy="13.2913" rx="24.8009" ry="13.2913" transform="matrix(-0.0301944 0.999544 0.99962 0.0275775 1.63657 0.51416)" fill="#815337"/>
<rect width="25.9452" height="3.54439" rx="1.7722" transform="matrix(-0.0200644 0.999799 0.999799 0.0200644 12.8592 12.4861)" fill="#D9D9D9"/>
<rect width="8.86098" height="1.52619" rx="0.763094" transform="matrix(-0.999799 -0.0200644 -0.0200644 0.999799 18.9994 15.6625)" fill="#D9D9D9"/>
<rect width="8.86098" height="1.52619" rx="0.763094" transform="matrix(-0.999799 -0.0200644 -0.0200644 0.999799 18.8233 24.4363)" fill="#D9D9D9"/>
<rect width="8.86098" height="1.52619" rx="0.763094" transform="matrix(-0.999799 -0.0200644 -0.0200644 0.999799 18.8998 20.6216)" fill="#D9D9D9"/>
<rect width="8.86098" height="1.52619" rx="0.763094" transform="matrix(-0.999799 -0.0200644 -0.0200644 0.999799 18.7467 28.251)" fill="#D9D9D9"/>
<rect width="8.86098" height="1.52619" rx="0.763094" transform="matrix(-0.999799 -0.0200644 -0.0200644 0.999799 18.6548 32.8286)" fill="#D9D9D9"/>
</svg>
