<svg width="39" height="56" viewBox="0 0 39 56" fill="none" xmlns="http://www.w3.org/2000/svg">
<ellipse cx="24.8009" cy="13.2913" rx="24.8009" ry="13.2913" transform="matrix(-0.244671 -0.969606 -0.968962 0.247208 38.3798 48.2874)" fill="#815337"/>
<rect width="25.9452" height="3.54439" rx="1.7722" transform="matrix(-0.254483 -0.967077 -0.967077 0.254483 24.3078 39.8462)" fill="#D9D9D9"/>
<rect width="8.86098" height="1.52619" rx="0.763094" transform="matrix(0.967077 -0.254483 -0.254483 -0.967077 17.5325 38.4728)" fill="#D9D9D9"/>
<rect width="8.86098" height="1.52619" rx="0.763094" transform="matrix(0.967077 -0.254483 -0.254483 -0.967077 15.2993 29.9861)" fill="#D9D9D9"/>
<rect width="8.86098" height="1.52619" rx="0.763094" transform="matrix(0.967077 -0.254483 -0.254483 -0.967077 16.2703 33.6759)" fill="#D9D9D9"/>
<rect width="8.86098" height="1.52619" rx="0.763094" transform="matrix(0.967077 -0.254483 -0.254483 -0.967077 14.3284 26.2963)" fill="#D9D9D9"/>
<rect width="8.86098" height="1.52619" rx="0.763094" transform="matrix(0.967077 -0.254483 -0.254483 -0.967077 13.1632 21.8684)" fill="#D9D9D9"/>
</svg>
