<svg width="400" height="240" viewBox="0 0 400 240" fill="none" xmlns="http://www.w3.org/2000/svg">
<rect x="138.466" y="228.04" width="6.78181" height="45.2121" rx="3.3909" transform="rotate(-132.799 138.466 228.04)" fill="#040000"/>
<rect x="204.852" y="125.785" width="6.78181" height="33.909" rx="3.3909" transform="rotate(-105.85 204.852 125.785)" fill="#040000"/>
<rect x="203.14" y="93" width="13.5636" height="33.909" rx="6.78181" transform="rotate(13.8892 203.14 93)" fill="black"/>
<rect x="177.036" y="213.62" width="6.78181" height="45.2121" rx="3.3909" transform="rotate(-112.223 177.036 213.62)" fill="#040000"/>
<rect x="174.328" y="207.692" width="6.78181" height="18.0848" rx="3.3909" transform="rotate(-38.7967 174.328 207.692)" fill="black"/>
<rect x="152.422" y="231.145" width="6.78181" height="18.0848" rx="3.3909" transform="rotate(128.045 152.422 231.145)" fill="black"/>
<rect x="167.936" y="202.934" width="9.04241" height="56.5151" rx="4.52121" transform="rotate(-151.358 167.936 202.934)" fill="black"/>
<rect x="220.666" y="195.209" width="9.04241" height="56.5151" rx="4.52121" transform="rotate(150.543 220.666 195.209)" fill="black"/>
<rect x="192.735" y="81.5728" width="15.8242" height="70.9765" rx="7.91211" transform="rotate(10.4818 192.735 81.5728)" fill="black"/>
<rect x="190.084" y="89" width="13.5636" height="33.909" rx="6.78181" transform="rotate(66.4478 190.084 89)" fill="black"/>
<rect x="198.82" y="126.038" width="6.78181" height="33.909" rx="3.3909" transform="rotate(123.984 198.82 126.038)" fill="#040000"/>

</svg>
