<svg width="400" height="241" viewBox="0 0 400 241" fill="none" xmlns="http://www.w3.org/2000/svg">
<rect x="240.115" y="235.796" width="6.78181" height="45.2121" rx="3.3909" transform="rotate(153.286 240.115 235.796)" fill="#040000"/>
<rect x="227.733" y="115.988" width="6.78181" height="33.909" rx="3.3909" transform="rotate(-158.065 227.733 115.988)" fill="#040000"/>
<rect x="195.647" y="101.398" width="13.5636" height="33.909" rx="6.78181" transform="rotate(-53.5352 195.647 101.398)" fill="black"/>
<rect x="221.364" y="197.109" width="9.04241" height="56.5151" rx="4.52121" transform="rotate(152.569 221.364 197.109)" fill="black"/>
<rect x="121.362" y="211.793" width="6.78181" height="45.2121" rx="3.3909" transform="rotate(-112.279 121.362 211.793)" fill="#040000"/>
<rect x="120.426" y="203.323" width="6.78181" height="18.0848" rx="3.3909" transform="rotate(27.77 120.426 203.323)" fill="black"/>
<rect x="191.692" y="90.2922" width="13.5636" height="33.909" rx="6.78181" transform="rotate(66.4478 191.692 90.2922)" fill="black"/>
<rect x="247.895" y="225.928" width="6.78181" height="18.0848" rx="3.3909" transform="rotate(62.7556 247.895 225.928)" fill="black"/>
<rect x="160.526" y="197.093" width="9.04241" height="56.5151" rx="4.52121" transform="rotate(-145.217 160.526 197.093)" fill="black"/>
<rect x="192.735" y="81.5728" width="15.8242" height="70.9765" rx="7.91211" transform="rotate(10.4818 192.735 81.5728)" fill="black"/>

<rect x="200.428" y="127.331" width="6.78181" height="33.909" rx="3.3909" transform="rotate(123.984 200.428 127.331)" fill="#040000"/>
</svg>
