<svg width="400" height="240" viewBox="0 0 400 240" fill="none" xmlns="http://www.w3.org/2000/svg">
<rect x="106.954" y="194.597" width="6.78181" height="45.2121" rx="3.3909" transform="rotate(-92.8492 106.954 194.597)" fill="#040000"/>
<rect x="215.14" y="121.123" width="6.78181" height="33.909" rx="3.3909" transform="rotate(-139.275 215.14 121.123)" fill="#040000"/>
<rect x="191.742" y="99.2582" width="13.5636" height="33.909" rx="6.78181" transform="rotate(-27.8255 191.742 99.2582)" fill="black"/>
<rect x="242.037" y="234.128" width="6.78181" height="45.2121" rx="3.3909" transform="rotate(162.537 242.037 234.128)" fill="#040000"/>
<rect x="236.622" y="237.877" width="6.78181" height="18.0848" rx="3.3909" transform="rotate(-90.1325 236.622 237.877)" fill="black"/>
<rect x="101.466" y="206.591" width="6.78181" height="18.0848" rx="3.3909" transform="rotate(-143.707 101.466 206.591)" fill="black"/>
<rect x="149.68" y="193.349" width="9.04241" height="56.5151" rx="4.52121" transform="rotate(-132.364 149.68 193.349)" fill="black"/>
<rect x="231.625" y="190.376" width="9.04241" height="56.5151" rx="4.52121" transform="rotate(139.492 231.625 190.376)" fill="black"/>
<rect x="192.735" y="81.5728" width="15.8242" height="70.9765" rx="7.91211" transform="rotate(10.4818 192.735 81.5728)" fill="black"/>
<rect x="190.084" y="89" width="13.5636" height="33.909" rx="6.78181" transform="rotate(66.4478 190.084 89)" fill="black"/>
<rect x="198.82" y="126.038" width="6.78181" height="33.909" rx="3.3909" transform="rotate(123.984 198.82 126.038)" fill="#040000"/>

</svg>
