<svg width="400" height="240" viewBox="0 0 400 240" fill="none" xmlns="http://www.w3.org/2000/svg">
<rect x="210.735" y="237.695" width="6.78181" height="45.2121" rx="3.3909" transform="rotate(-173.268 210.735 237.695)" fill="#040000"/>
<rect x="221.965" y="116.346" width="6.78181" height="33.909" rx="3.3909" transform="rotate(-117.912 221.965 116.346)" fill="#040000"/>
<rect x="195.191" y="99.8652" width="13.5636" height="33.909" rx="6.78181" transform="rotate(-51.9448 195.191 99.8652)" fill="black"/>
<rect x="216.722" y="196.75" width="9.04241" height="56.5151" rx="4.52121" transform="rotate(158.969 216.722 196.75)" fill="black"/>
<rect x="144" y="194.706" width="6.78181" height="45.2121" rx="3.3909" transform="rotate(-81.427 144 194.706)" fill="#040000"/>
<rect x="144.214" y="188" width="6.78181" height="18.0848" rx="3.3909" transform="rotate(34.3866 144.214 188)" fill="black"/>
<rect x="222.08" y="230" width="6.78181" height="18.0848" rx="3.3909" transform="rotate(88.6391 222.08 230)" fill="black"/>
<rect x="194.782" y="199.52" width="9.04241" height="56.5151" rx="4.52121" transform="rotate(171.077 194.782 199.52)" fill="black"/>
<rect x="192.735" y="81.5728" width="15.8242" height="70.9765" rx="7.91211" transform="rotate(10.4818 192.735 81.5728)" fill="black"/>

<rect x="194.298" y="92" width="13.5636" height="33.909" rx="6.78181" transform="rotate(79.1094 194.298 92)" fill="black"/>
<rect x="183.653" y="136.138" width="6.78181" height="33.909" rx="3.3909" transform="rotate(156.677 183.653 136.138)" fill="#040000"/>
</svg>
