<svg width="400" height="240" viewBox="0 0 400 240" fill="none" xmlns="http://www.w3.org/2000/svg">
<rect x="210.735" y="237.695" width="6.78181" height="45.2121" rx="3.3909" transform="rotate(-173.268 210.735 237.695)" fill="#040000"/>
<rect x="226.965" y="112.346" width="6.78181" height="33.909" rx="3.3909" transform="rotate(-117.912 226.965 112.346)" fill="#040000"/>
<rect x="197.511" y="102.629" width="13.5636" height="33.909" rx="6.78181" transform="rotate(-63.9665 197.511 102.629)" fill="black"/>
<rect x="216.722" y="196.75" width="9.04241" height="56.5151" rx="4.52121" transform="rotate(158.969 216.722 196.75)" fill="black"/>
<rect x="160.665" y="214.434" width="6.78181" height="45.2121" rx="3.3909" transform="rotate(-109.412 160.665 214.434)" fill="#040000"/>
<rect x="160.214" y="207" width="6.78181" height="18.0848" rx="3.3909" transform="rotate(34.3866 160.214 207)" fill="black"/>
<rect x="222.08" y="230" width="6.78181" height="18.0848" rx="3.3909" transform="rotate(88.6391 222.08 230)" fill="black"/>
<rect x="206.996" y="199.041" width="9.04241" height="56.5151" rx="4.52121" transform="rotate(159.805 206.996 199.041)" fill="black"/>
<rect x="192.735" y="81.5728" width="15.8242" height="70.9765" rx="7.91211" transform="rotate(10.4818 192.735 81.5728)" fill="black"/>

<rect x="194.298" y="92" width="13.5636" height="33.909" rx="6.78181" transform="rotate(79.1094 194.298 92)" fill="black"/>
<rect x="169.78" y="138.948" width="6.78181" height="33.909" rx="3.3909" transform="rotate(-178.525 169.78 138.948)" fill="#040000"/>
</svg>
