<svg width="400" height="240" viewBox="0 0 400 240" fill="none" xmlns="http://www.w3.org/2000/svg">
<rect x="210.735" y="237.695" width="6.78181" height="45.2121" rx="3.3909" transform="rotate(-173.268 210.735 237.695)" fill="#040000"/>
<rect x="230.175" y="101.866" width="6.78181" height="33.909" rx="3.3909" transform="rotate(-117.912 230.175 101.866)" fill="#040000"/>
<rect x="202.587" y="106.966" width="13.5636" height="33.909" rx="6.78181" transform="rotate(-93.2434 202.587 106.966)" fill="black"/>
<rect x="216.722" y="196.75" width="9.04241" height="56.5151" rx="4.52121" transform="rotate(158.969 216.722 196.75)" fill="black"/>
<rect x="188.871" y="215.372" width="6.78181" height="45.2121" rx="3.3909" transform="rotate(-124.8 188.871 215.372)" fill="#040000"/>
<rect x="187.411" y="209" width="6.78181" height="18.0848" rx="3.3909" transform="rotate(39.1229 187.411 209)" fill="black"/>
<rect x="222.08" y="230" width="6.78181" height="18.0848" rx="3.3909" transform="rotate(88.6391 222.08 230)" fill="black"/>
<rect x="227.035" y="183.135" width="9.04241" height="56.5151" rx="4.52121" transform="rotate(133.825 227.035 183.135)" fill="black"/>
<rect x="192.735" y="81.5728" width="15.8242" height="70.9765" rx="7.91211" transform="rotate(10.4818 192.735 81.5728)" fill="black"/>

<rect x="194.298" y="92" width="13.5636" height="33.909" rx="6.78181" transform="rotate(79.1094 194.298 92)" fill="black"/>
<rect x="157.145" y="138.593" width="6.78181" height="33.909" rx="3.3909" transform="rotate(-154.962 157.145 138.593)" fill="#040000"/>
</svg>
