<svg width="400" height="240" viewBox="0 0 400 240" fill="none" xmlns="http://www.w3.org/2000/svg">
<rect x="201.203" y="122.872" width="6.78181" height="33.909" rx="3.3909" transform="rotate(-55.9431 201.203 122.872)" fill="#040000"/>
<rect x="196.048" y="91.6197" width="13.5636" height="33.909" rx="6.78181" transform="rotate(3.69629 196.048 91.6197)" fill="black"/>
<rect x="170" y="194.545" width="6.78181" height="45.2121" rx="3.3909" transform="rotate(-81.427 170 194.545)" fill="#040000"/>
<rect x="163.782" y="190.21" width="6.78181" height="18.0848" rx="3.3909" transform="rotate(-15.1478 163.782 190.21)" fill="black"/>
<rect x="220.309" y="196.464" width="9.04241" height="56.5151" rx="4.52121" transform="rotate(152.848 220.309 196.464)" fill="black"/>
<rect x="192.735" y="81.5728" width="15.8242" height="70.9765" rx="7.91211" transform="rotate(10.4818 192.735 81.5728)" fill="black"/>
<rect x="190.084" y="89" width="13.5636" height="33.909" rx="6.78181" transform="rotate(66.4478 190.084 89)" fill="black"/>
<rect x="198.82" y="126.038" width="6.78181" height="33.909" rx="3.3909" transform="rotate(123.984 198.82 126.038)" fill="#040000"/>

<rect x="164.099" y="238.52" width="6.78181" height="45.2121" rx="3.3909" transform="rotate(-164.134 164.099 238.52)" fill="#040000"/>
<rect x="174.38" y="203.611" width="9.04241" height="56.5151" rx="4.52121" transform="rotate(-160.403 174.38 203.611)" fill="black"/>
<rect x="176.08" y="231" width="6.78181" height="18.0848" rx="3.3909" transform="rotate(88.6391 176.08 231)" fill="black"/>
</svg>
