<svg width="400" height="240" viewBox="0 0 400 240" fill="none" xmlns="http://www.w3.org/2000/svg">
<rect x="210.735" y="237.695" width="6.78181" height="45.2121" rx="3.3909" transform="rotate(-173.268 210.735 237.695)" fill="#040000"/>
<rect x="231.175" y="96.866" width="6.78181" height="33.909" rx="3.3909" transform="rotate(-117.912 231.175 96.866)" fill="#040000"/>
<rect x="202.947" y="107.607" width="13.5636" height="33.909" rx="6.78181" transform="rotate(-102.549 202.947 107.607)" fill="black"/>
<rect x="222.08" y="230" width="6.78181" height="18.0848" rx="3.3909" transform="rotate(88.6391 222.08 230)" fill="black"/>
<rect x="276.616" y="106.016" width="6.78181" height="45.2121" rx="3.3909" transform="rotate(79.3021 276.616 106.016)" fill="#040000"/>
<rect x="273.306" y="113.805" width="6.78181" height="18.0848" rx="3.3909" transform="rotate(-108.528 273.306 113.805)" fill="black"/>
<rect x="230.907" y="111.672" width="9.04241" height="56.5151" rx="4.52121" transform="rotate(53.2957 230.907 111.672)" fill="black"/>
<rect x="194.298" y="92" width="13.5636" height="33.909" rx="6.78181" transform="rotate(79.1094 194.298 92)" fill="black"/>
<rect x="148.233" y="133.48" width="6.78181" height="33.909" rx="3.3909" transform="rotate(-140.505 148.233 133.48)" fill="#040000"/>
<rect x="216.722" y="196.75" width="9.04241" height="56.5151" rx="4.52121" transform="rotate(158.969 216.722 196.75)" fill="black"/>
<rect x="192.735" y="81.5728" width="15.8242" height="70.9765" rx="7.91211" transform="rotate(10.4818 192.735 81.5728)" fill="black"/>

</svg>
