<svg width="400" height="240" viewBox="0 0 400 240" fill="none" xmlns="http://www.w3.org/2000/svg">
<rect x="124.373" y="218.174" width="6.78181" height="45.2121" rx="3.3909" transform="rotate(-110.482 124.373 218.174)" fill="#040000"/>
<rect x="212.512" y="124.6" width="6.78181" height="33.909" rx="3.3909" transform="rotate(-125.993 212.512 124.6)" fill="#040000"/>
<rect x="192.347" y="98.5809" width="13.5636" height="33.909" rx="6.78181" transform="rotate(-24.9746 192.347 98.5809)" fill="black"/>
<rect x="232.849" y="231.258" width="6.78181" height="45.2121" rx="3.3909" transform="rotate(177.065 232.849 231.258)" fill="#040000"/>
<rect x="228.482" y="231.93" width="6.78181" height="18.0848" rx="3.3909" transform="rotate(-111.467 228.482 231.93)" fill="black"/>
<rect x="133.324" y="229.441" width="6.78181" height="18.0848" rx="3.3909" transform="rotate(164.662 133.324 229.441)" fill="black"/>
<rect x="167.936" y="202.934" width="9.04241" height="56.5151" rx="4.52121" transform="rotate(-151.358 167.936 202.934)" fill="black"/>
<rect x="233.811" y="186.135" width="9.04241" height="56.5151" rx="4.52121" transform="rotate(132.437 233.811 186.135)" fill="black"/>
<rect x="192.735" y="81.5728" width="15.8242" height="70.9765" rx="7.91211" transform="rotate(10.4818 192.735 81.5728)" fill="black"/>
<rect x="190.084" y="89" width="13.5636" height="33.909" rx="6.78181" transform="rotate(66.4478 190.084 89)" fill="black"/>
<rect x="198.82" y="126.038" width="6.78181" height="33.909" rx="3.3909" transform="rotate(123.984 198.82 126.038)" fill="#040000"/>

</svg>
