<svg width="400" height="240" viewBox="0 0 400 240" fill="none" xmlns="http://www.w3.org/2000/svg">
<rect x="179.735" y="238.695" width="6.78181" height="45.2121" rx="3.3909" transform="rotate(-173.268 179.735 238.695)" fill="#040000"/>
<rect x="203.47" y="126.116" width="6.78181" height="33.909" rx="3.3909" transform="rotate(-93.9745 203.47 126.116)" fill="#040000"/>
<rect x="196.048" y="91.6197" width="13.5636" height="33.909" rx="6.78181" transform="rotate(3.69629 196.048 91.6197)" fill="black"/>
<rect x="157" y="195.545" width="6.78181" height="45.2121" rx="3.3909" transform="rotate(-81.427 157 195.545)" fill="#040000"/>
<rect x="155.782" y="190.21" width="6.78181" height="18.0848" rx="3.3909" transform="rotate(-15.1478 155.782 190.21)" fill="black"/>
<rect x="191.08" y="231" width="6.78181" height="18.0848" rx="3.3909" transform="rotate(88.6391 191.08 231)" fill="black"/>
<rect x="187.314" y="204.039" width="9.04241" height="56.5151" rx="4.52121" transform="rotate(-174.347 187.314 204.039)" fill="black"/>
<rect x="206.259" y="200.416" width="9.04241" height="56.5151" rx="4.52121" transform="rotate(160.103 206.259 200.416)" fill="black"/>
<rect x="192.735" y="81.5728" width="15.8242" height="70.9765" rx="7.91211" transform="rotate(10.4818 192.735 81.5728)" fill="black"/>
<rect x="190.084" y="89" width="13.5636" height="33.909" rx="6.78181" transform="rotate(66.4478 190.084 89)" fill="black"/>
<rect x="198.82" y="126.038" width="6.78181" height="33.909" rx="3.3909" transform="rotate(123.984 198.82 126.038)" fill="#040000"/>

</svg>
