<svg width="400" height="240" viewBox="0 0 400 240" fill="none" xmlns="http://www.w3.org/2000/svg">
<rect x="219.735" y="237.695" width="6.78181" height="45.2121" rx="3.3909" transform="rotate(-173.268 219.735 237.695)" fill="#040000"/>
<rect x="224.809" y="118.826" width="6.78181" height="33.909" rx="3.3909" transform="rotate(-135.159 224.809 118.826)" fill="#040000"/>
<rect x="197" y="99.0121" width="13.5636" height="33.909" rx="6.78181" transform="rotate(-47.575 197 99.0121)" fill="black"/>
<rect x="226.95" y="192.947" width="9.04241" height="56.5151" rx="4.52121" transform="rotate(145.818 226.95 192.947)" fill="black"/>
<rect x="131.962" y="206.125" width="6.78181" height="45.2121" rx="3.3909" transform="rotate(-98.1521 131.962 206.125)" fill="#040000"/>
<rect x="128" y="201.021" width="6.78181" height="18.0848" rx="3.3909" transform="rotate(-0.172736 128 201.021)" fill="black"/>
<rect x="231.08" y="230" width="6.78181" height="18.0848" rx="3.3909" transform="rotate(88.6391 231.08 230)" fill="black"/>
<rect x="180.484" y="200.919" width="9.04241" height="56.5151" rx="4.52121" transform="rotate(-170.01 180.484 200.919)" fill="black"/>
<rect x="192.735" y="81.5728" width="15.8242" height="70.9765" rx="7.91211" transform="rotate(10.4818 192.735 81.5728)" fill="black"/>

<rect x="192.084" y="89" width="13.5636" height="33.909" rx="6.78181" transform="rotate(66.4478 192.084 89)" fill="black"/>
<rect x="200.82" y="126.038" width="6.78181" height="33.909" rx="3.3909" transform="rotate(123.984 200.82 126.038)" fill="#040000"/>
</svg>
