<svg width="400" height="240" viewBox="0 0 400 240" fill="none" xmlns="http://www.w3.org/2000/svg">
<rect width="6.78181" height="45.2121" rx="3.3909" transform="matrix(0.959535 0.281591 0.281591 -0.959535 163.458 234.864)" fill="#040000"/>
<rect width="6.78181" height="33.909" rx="3.3909" transform="matrix(0.975115 -0.221698 -0.221698 -0.975115 168.531 112.278)" fill="#040000"/>
<rect width="13.5636" height="33.909" rx="6.78181" transform="matrix(-0.431851 -0.901945 -0.901945 0.431851 202.908 102.815)" fill="black"/>
<rect width="9.04241" height="56.5151" rx="4.52121" transform="matrix(0.82726 0.561819 0.561819 -0.82726 173.05 192.947)" fill="black"/>
<rect width="6.78181" height="45.2121" rx="3.3909" transform="matrix(0.226832 -0.973934 -0.973934 -0.226832 275.253 210.515)" fill="#040000"/>
<rect width="6.78181" height="18.0848" rx="3.3909" transform="matrix(-0.965926 0.258819 0.258819 0.965926 277.722 202.292)" fill="black"/>
<rect width="6.78181" height="18.0848" rx="3.3909" transform="matrix(-0.254328 0.967118 0.967118 0.254328 153.709 226.503)" fill="black"/>
<rect width="9.04241" height="56.5151" rx="4.52121" transform="matrix(0.939693 -0.34202 -0.34202 -0.939693 230.483 200.405)" fill="black"/>
<rect width="15.8242" height="70.9765" rx="7.91211" transform="matrix(-0.983313 0.181924 0.181924 0.983313 207.265 81.5728)" fill="black"/>

<rect width="13.5636" height="33.909" rx="6.78181" transform="matrix(-0.399584 0.916696 0.916696 0.399584 207.916 89)" fill="black"/>
<rect width="6.78181" height="33.909" rx="3.3909" transform="matrix(0.558955 0.829198 0.829198 -0.558955 199.18 126.038)" fill="#040000"/>
</svg>
