<svg width="400" height="240" viewBox="0 0 400 240" fill="none" xmlns="http://www.w3.org/2000/svg">
<rect width="6.78181" height="45.2121" rx="3.3909" transform="matrix(0.993105 -0.117229 -0.117229 -0.993105 189.265 237.695)" fill="#040000"/>
<rect width="6.78181" height="33.909" rx="3.3909" transform="matrix(0.468107 -0.883672 -0.883672 -0.468107 173.035 112.346)" fill="#040000"/>
<rect width="13.5636" height="33.909" rx="6.78181" transform="matrix(-0.438896 -0.898538 -0.898538 0.438896 202.488 102.629)" fill="black"/>
<rect width="9.04241" height="56.5151" rx="4.52121" transform="matrix(0.933386 0.358873 0.358873 -0.933386 183.278 196.75)" fill="black"/>
<rect width="6.78181" height="45.2121" rx="3.3909" transform="matrix(0.332362 -0.943152 -0.943152 -0.332362 239.335 214.434)" fill="#040000"/>
<rect width="6.78181" height="18.0848" rx="3.3909" transform="matrix(-0.825245 0.564774 0.564775 0.825245 239.786 207)" fill="black"/>
<rect width="6.78181" height="18.0848" rx="3.3909" transform="matrix(-0.0237495 0.999718 0.999718 0.0237494 177.92 230)" fill="black"/>
<rect width="9.04241" height="56.5151" rx="4.52121" transform="matrix(0.938525 0.345212 0.345212 -0.938525 193.004 199.041)" fill="black"/>
<rect width="15.8242" height="70.9765" rx="7.91211" transform="matrix(-0.983313 0.181924 0.181924 0.983313 207.265 81.5728)" fill="black"/>

<rect width="13.5636" height="33.909" rx="6.78181" transform="matrix(-0.188935 0.98199 0.98199 0.188935 205.701 92)" fill="black"/>
<rect width="6.78181" height="33.909" rx="3.3909" transform="matrix(0.999669 -0.025735 -0.0257348 -0.999669 230.221 138.948)" fill="#040000"/>
</svg>
