<svg width="400" height="240" viewBox="0 0 400 240" fill="none" xmlns="http://www.w3.org/2000/svg">
<rect width="6.78181" height="45.2121" rx="3.3909" transform="matrix(0.993105 -0.117229 -0.117229 -0.993105 180.265 237.695)" fill="#040000"/>
<rect width="6.78181" height="33.909" rx="3.3909" transform="matrix(0.709067 -0.705142 -0.705142 -0.709066 175.191 118.826)" fill="#040000"/>
<rect width="13.5636" height="33.909" rx="6.78181" transform="matrix(-0.674624 -0.738161 -0.738161 0.674624 203 99.0121)" fill="black"/>
<rect width="9.04241" height="56.5151" rx="4.52121" transform="matrix(0.82726 0.561819 0.561819 -0.82726 173.05 192.947)" fill="black"/>
<rect width="6.78181" height="45.2121" rx="3.3909" transform="matrix(0.141802 -0.989895 -0.989895 -0.141802 268.038 206.125)" fill="#040000"/>
<rect width="6.78181" height="18.0848" rx="3.3909" transform="matrix(-0.999995 -0.0030148 -0.00301475 0.999996 272 201.021)" fill="black"/>
<rect width="6.78181" height="18.0848" rx="3.3909" transform="matrix(-0.0237495 0.999718 0.999718 0.0237494 168.92 230)" fill="black"/>
<rect width="9.04241" height="56.5151" rx="4.52121" transform="matrix(0.984838 -0.17348 -0.17348 -0.984837 219.517 200.919)" fill="black"/>
<rect width="15.8242" height="70.9765" rx="7.91211" transform="matrix(-0.983313 0.181924 0.181924 0.983313 207.265 81.5728)" fill="black"/>

<rect width="13.5636" height="33.909" rx="6.78181" transform="matrix(-0.399584 0.916696 0.916696 0.399584 207.916 89)" fill="black"/>
<rect width="6.78181" height="33.909" rx="3.3909" transform="matrix(0.558955 0.829198 0.829198 -0.558955 199.18 126.038)" fill="#040000"/>
</svg>
