<svg width="400" height="240" viewBox="0 0 400 240" fill="none" xmlns="http://www.w3.org/2000/svg">
<rect width="6.78181" height="45.2121" rx="3.3909" transform="matrix(0.993105 -0.117229 -0.117229 -0.993105 189.265 237.695)" fill="#040000"/>
<rect width="6.78181" height="33.909" rx="3.3909" transform="matrix(0.468107 -0.883672 -0.883672 -0.468107 178.035 116.346)" fill="#040000"/>
<rect width="13.5636" height="33.909" rx="6.78181" transform="matrix(-0.61642 -0.787417 -0.787417 0.61642 204.809 99.8652)" fill="black"/>
<rect width="9.04241" height="56.5151" rx="4.52121" transform="matrix(0.933386 0.358873 0.358873 -0.933386 183.278 196.75)" fill="black"/>
<rect width="6.78181" height="45.2121" rx="3.3909" transform="matrix(-0.14907 -0.988827 -0.988827 0.14907 256 194.706)" fill="#040000"/>
<rect width="6.78181" height="18.0848" rx="3.3909" transform="matrix(-0.825245 0.564774 0.564775 0.825245 255.786 188)" fill="black"/>
<rect width="6.78181" height="18.0848" rx="3.3909" transform="matrix(-0.0237495 0.999718 0.999718 0.0237494 177.92 230)" fill="black"/>
<rect width="9.04241" height="56.5151" rx="4.52121" transform="matrix(0.987899 0.155102 0.155102 -0.987898 205.218 199.52)" fill="black"/>
<rect width="15.8242" height="70.9765" rx="7.91211" transform="matrix(-0.983313 0.181924 0.181924 0.983313 207.265 81.5728)" fill="black"/>

<rect width="13.5636" height="33.909" rx="6.78181" transform="matrix(-0.188935 0.98199 0.98199 0.188935 205.701 92)" fill="black"/>
<rect width="6.78181" height="33.909" rx="3.3909" transform="matrix(0.918285 0.395919 0.395919 -0.918285 216.348 136.138)" fill="#040000"/>
</svg>
