<svg width="400" height="240" viewBox="0 0 400 240" fill="none" xmlns="http://www.w3.org/2000/svg">
<rect width="6.78181" height="45.2121" rx="3.3909" transform="matrix(0.993105 -0.117229 -0.117229 -0.993105 189.265 237.695)" fill="#040000"/>
<rect width="6.78181" height="33.909" rx="3.3909" transform="matrix(0.468107 -0.883672 -0.883672 -0.468107 168.825 96.866)" fill="#040000"/>
<rect width="13.5636" height="33.909" rx="6.78181" transform="matrix(0.217273 -0.976111 -0.976111 -0.217274 197.053 107.607)" fill="black"/>
<rect width="6.78181" height="18.0848" rx="3.3909" transform="matrix(-0.0237495 0.999718 0.999718 0.0237494 177.92 230)" fill="black"/>
<rect width="6.78181" height="45.2121" rx="3.3909" transform="matrix(-0.185631 0.98262 0.98262 0.185631 123.385 106.016)" fill="#040000"/>
<rect width="6.78181" height="18.0848" rx="3.3909" transform="matrix(0.317775 -0.948166 -0.948166 -0.317775 126.694 113.805)" fill="black"/>
<rect width="9.04241" height="56.5151" rx="4.52121" transform="matrix(-0.597686 0.801731 0.801731 0.597685 169.093 111.672)" fill="black"/>
<rect width="13.5636" height="33.909" rx="6.78181" transform="matrix(-0.188935 0.98199 0.98199 0.188935 205.701 92)" fill="black"/>
<rect width="6.78181" height="33.909" rx="3.3909" transform="matrix(0.771684 -0.636007 -0.636006 -0.771684 251.767 133.48)" fill="#040000"/>
<rect width="9.04241" height="56.5151" rx="4.52121" transform="matrix(0.933386 0.358873 0.358873 -0.933386 183.278 196.75)" fill="black"/>
<rect width="15.8242" height="70.9765" rx="7.91211" transform="matrix(-0.983313 0.181924 0.181924 0.983313 207.265 81.5728)" fill="black"/>

</svg>
