<svg width="400" height="241" viewBox="0 0 400 241" fill="none" xmlns="http://www.w3.org/2000/svg">
<rect width="6.78181" height="45.2121" rx="3.3909" transform="matrix(0.893261 0.449539 0.449539 -0.893261 159.886 235.796)" fill="#040000"/>
<rect width="6.78181" height="33.909" rx="3.3909" transform="matrix(0.927606 -0.373561 -0.373561 -0.927606 172.267 115.988)" fill="#040000"/>
<rect width="13.5636" height="33.909" rx="6.78181" transform="matrix(-0.594328 -0.804223 -0.804223 0.594328 204.353 101.398)" fill="black"/>
<rect width="9.04241" height="56.5151" rx="4.52121" transform="matrix(0.88757 0.460674 0.460674 -0.88757 178.636 197.109)" fill="black"/>
<rect width="6.78181" height="45.2121" rx="3.3909" transform="matrix(0.379116 -0.925349 -0.925349 -0.379116 278.639 211.793)" fill="#040000"/>
<rect width="6.78181" height="18.0848" rx="3.3909" transform="matrix(-0.884825 0.465924 0.465924 0.884825 279.574 203.323)" fill="black"/>
<rect width="13.5636" height="33.909" rx="6.78181" transform="matrix(-0.399584 0.916696 0.916696 0.399584 208.308 90.2922)" fill="black"/>
<rect width="6.78181" height="18.0848" rx="3.3909" transform="matrix(-0.457786 0.889062 0.889062 0.457786 152.104 225.928)" fill="black"/>
<rect width="9.04241" height="56.5151" rx="4.52121" transform="matrix(0.821316 -0.570473 -0.570473 -0.821316 239.474 197.093)" fill="black"/>
<rect width="15.8242" height="70.9765" rx="7.91211" transform="matrix(-0.983313 0.181924 0.181924 0.983313 207.265 81.5728)" fill="black"/>

<rect width="6.78181" height="33.909" rx="3.3909" transform="matrix(0.558955 0.829198 0.829198 -0.558955 199.572 127.331)" fill="#040000"/>
</svg>
