<svg width="400" height="240" viewBox="0 0 400 240" fill="none" xmlns="http://www.w3.org/2000/svg">
<rect width="6.78181" height="45.2121" rx="3.3909" transform="matrix(0.881832 -0.471564 -0.471564 -0.881832 251.922 238.727)" fill="#040000"/>
<rect width="6.78181" height="33.909" rx="3.3909" transform="matrix(0.0693129 -0.997595 -0.997595 -0.0693128 208.53 126.116)" fill="#040000"/>
<rect width="13.5636" height="33.909" rx="6.78181" transform="matrix(-0.875889 0.482513 0.482513 0.875889 203.037 90.8535)" fill="black"/>
<rect width="6.78181" height="45.2121" rx="3.3909" transform="matrix(-0.0239421 -0.999713 -0.999713 0.0239422 227 198.78)" fill="#040000"/>
<rect width="6.78181" height="18.0848" rx="3.3909" transform="matrix(-0.965255 -0.261309 -0.261309 0.965255 228 192.772)" fill="black"/>
<rect width="6.78181" height="18.0848" rx="3.3909" transform="matrix(-0.0237495 0.999718 0.999718 0.0237494 237.92 232)" fill="black"/>
<rect width="9.04241" height="56.5151" rx="4.52121" transform="matrix(0.877631 -0.479338 -0.479338 -0.87763 232.064 202.934)" fill="black"/>
<rect width="9.04241" height="56.5151" rx="4.52121" transform="matrix(0.870728 0.491764 0.491764 -0.870728 179.334 195.209)" fill="black"/>
<rect width="15.8242" height="70.9765" rx="7.91211" transform="matrix(-0.983313 0.181924 0.181924 0.983313 207.265 81.5728)" fill="black"/>
<rect width="13.5636" height="33.909" rx="6.78181" transform="matrix(-0.399584 0.916696 0.916696 0.399584 209.916 89)" fill="black"/>
<rect width="6.78181" height="33.909" rx="3.3909" transform="matrix(0.558955 0.829198 0.829198 -0.558955 201.18 126.038)" fill="#040000"/>

</svg>
