<svg width="400" height="240" viewBox="0 0 400 240" fill="none" xmlns="http://www.w3.org/2000/svg">
<rect width="6.78181" height="45.2121" rx="3.3909" transform="matrix(0.349919 -0.93678 -0.93678 -0.349919 275.627 218.174)" fill="#040000"/>
<rect width="6.78181" height="33.909" rx="3.3909" transform="matrix(0.587692 -0.809085 -0.809085 -0.587692 189.488 128.6)" fill="#040000"/>
<rect width="13.5636" height="33.909" rx="6.78181" transform="matrix(-0.970953 -0.23927 -0.23927 0.970953 204.988 96.2474)" fill="black"/>
<rect width="6.78181" height="45.2121" rx="3.3909" transform="matrix(0.991491 -0.130175 -0.130175 -0.991491 187.275 236.71)" fill="#040000"/>
<rect width="6.78181" height="18.0848" rx="3.3909" transform="matrix(0.365961 -0.93063 -0.93063 -0.365961 191.518 236.93)" fill="black"/>
<rect width="6.78181" height="18.0848" rx="3.3909" transform="matrix(0.964381 0.264519 0.264519 -0.96438 266.676 229.441)" fill="black"/>
<rect width="9.04241" height="56.5151" rx="4.52121" transform="matrix(0.877631 -0.479338 -0.479338 -0.87763 232.064 202.934)" fill="black"/>
<rect width="9.04241" height="56.5151" rx="4.52121" transform="matrix(0.870728 0.491764 0.491764 -0.870728 179.334 195.209)" fill="black"/>
<rect width="15.8242" height="70.9765" rx="7.91211" transform="matrix(-0.983313 0.181924 0.181924 0.983313 207.265 81.5728)" fill="black"/>
<rect width="13.5636" height="33.909" rx="6.78181" transform="matrix(-0.399584 0.916696 0.916696 0.399584 209.916 89)" fill="black"/>
<rect width="6.78181" height="33.909" rx="3.3909" transform="matrix(0.558955 0.829198 0.829198 -0.558955 201.18 126.038)" fill="#040000"/>

</svg>
