<svg width="400" height="240" viewBox="0 0 400 240" fill="none" xmlns="http://www.w3.org/2000/svg">
<rect width="6.78181" height="45.2121" rx="3.3909" transform="matrix(0.993105 -0.117229 -0.117229 -0.993105 220.265 238.695)" fill="#040000"/>
<rect width="6.78181" height="33.909" rx="3.3909" transform="matrix(0.0693129 -0.997595 -0.997595 -0.0693128 196.53 126.116)" fill="#040000"/>
<rect width="13.5636" height="33.909" rx="6.78181" transform="matrix(-0.99792 0.0644677 0.0644675 0.99792 203.952 91.6197)" fill="black"/>
<rect width="6.78181" height="45.2121" rx="3.3909" transform="matrix(-0.14907 -0.988827 -0.988827 0.14907 243 195.545)" fill="#040000"/>
<rect width="6.78181" height="18.0848" rx="3.3909" transform="matrix(-0.965255 -0.261309 -0.261309 0.965255 244.218 190.21)" fill="black"/>
<rect width="6.78181" height="18.0848" rx="3.3909" transform="matrix(-0.0237495 0.999718 0.999718 0.0237494 208.92 231)" fill="black"/>
<rect width="9.04241" height="56.5151" rx="4.52121" transform="matrix(0.995137 -0.0985062 -0.0985064 -0.995136 212.686 204.039)" fill="black"/>
<rect width="9.04241" height="56.5151" rx="4.52121" transform="matrix(0.940305 0.340333 0.340333 -0.940305 193.741 200.416)" fill="black"/>
<rect width="15.8242" height="70.9765" rx="7.91211" transform="matrix(-0.983313 0.181924 0.181924 0.983313 207.265 81.5728)" fill="black"/>
<rect width="13.5636" height="33.909" rx="6.78181" transform="matrix(-0.399584 0.916696 0.916696 0.399584 209.916 89)" fill="black"/>
<rect width="6.78181" height="33.909" rx="3.3909" transform="matrix(0.558955 0.829198 0.829198 -0.558955 201.18 126.038)" fill="#040000"/>

</svg>
