<svg width="400" height="240" viewBox="0 0 400 240" fill="none" xmlns="http://www.w3.org/2000/svg">
<rect width="6.78181" height="45.2121" rx="3.3909" transform="matrix(0.993105 -0.117229 -0.117229 -0.993105 189.265 237.695)" fill="#040000"/>
<rect width="6.78181" height="33.909" rx="3.3909" transform="matrix(0.468107 -0.883672 -0.883672 -0.468107 183.035 120.346)" fill="#040000"/>
<rect width="13.5636" height="33.909" rx="6.78181" transform="matrix(-0.848719 -0.528844 -0.528844 0.848719 204 96.173)" fill="black"/>
<rect width="9.04241" height="56.5151" rx="4.52121" transform="matrix(0.933386 0.358873 0.358873 -0.933386 183.278 196.75)" fill="black"/>
<rect width="6.78181" height="45.2121" rx="3.3909" transform="matrix(-0.14907 -0.988827 -0.988827 0.14907 262 195.545)" fill="#040000"/>
<rect width="6.78181" height="18.0848" rx="3.3909" transform="matrix(-0.999995 -0.0030148 -0.00301475 0.999996 263 191.02)" fill="black"/>
<rect width="6.78181" height="18.0848" rx="3.3909" transform="matrix(-0.0237495 0.999718 0.999718 0.0237494 177.92 230)" fill="black"/>
<rect width="9.04241" height="56.5151" rx="4.52121" transform="matrix(0.999022 -0.0442212 -0.0442213 -0.999022 212.8 200.735)" fill="black"/>
<rect width="15.8242" height="70.9765" rx="7.91211" transform="matrix(-0.983313 0.181924 0.181924 0.983313 207.265 81.5728)" fill="black"/>

<rect width="13.5636" height="33.909" rx="6.78181" transform="matrix(-0.399584 0.916696 0.916696 0.399584 207.916 90)" fill="black"/>
<rect width="6.78181" height="33.909" rx="3.3909" transform="matrix(0.558955 0.829198 0.829198 -0.558955 199.18 127.038)" fill="#040000"/>
</svg>
