<svg width="400" height="240" viewBox="0 0 400 240" fill="none" xmlns="http://www.w3.org/2000/svg">
<rect width="6.78181" height="33.909" rx="3.3909" transform="matrix(-0.560017 -0.828481 -0.828481 0.560017 198.797 122.872)" fill="#040000"/>
<rect width="13.5636" height="33.909" rx="6.78181" transform="matrix(-0.99792 0.0644677 0.0644675 0.99792 203.952 91.6197)" fill="black"/>
<rect width="6.78181" height="45.2121" rx="3.3909" transform="matrix(-0.14907 -0.988827 -0.988827 0.14907 230 194.545)" fill="#040000"/>
<rect width="6.78181" height="18.0848" rx="3.3909" transform="matrix(-0.965255 -0.261309 -0.261309 0.965255 236.218 190.21)" fill="black"/>
<rect width="9.04241" height="56.5151" rx="4.52121" transform="matrix(0.889797 0.456357 0.456357 -0.889797 179.69 196.464)" fill="black"/>
<rect width="15.8242" height="70.9765" rx="7.91211" transform="matrix(-0.983313 0.181924 0.181924 0.983313 207.265 81.5728)" fill="black"/>
<rect width="13.5636" height="33.909" rx="6.78181" transform="matrix(-0.399584 0.916696 0.916696 0.399584 209.916 89)" fill="black"/>
<rect width="6.78181" height="33.909" rx="3.3909" transform="matrix(0.558955 0.829198 0.829198 -0.558955 201.18 126.038)" fill="#040000"/>

<rect width="6.78181" height="45.2121" rx="3.3909" transform="matrix(0.961905 -0.273383 -0.273383 -0.961905 235.9 238.52)" fill="#040000"/>
<rect width="9.04241" height="56.5151" rx="4.52121" transform="matrix(0.942078 -0.335395 -0.335395 -0.942077 225.619 203.611)" fill="black"/>
<rect width="6.78181" height="18.0848" rx="3.3909" transform="matrix(-0.0237495 0.999718 0.999718 0.0237494 223.92 231)" fill="black"/>
</svg>
