<svg width="45" height="57" viewBox="0 0 45 57" fill="none" xmlns="http://www.w3.org/2000/svg">
<ellipse cx="24.8009" cy="13.2913" rx="24.8009" ry="13.2913" transform="matrix(-0.381395 0.924412 0.925407 0.378974 19.7983 0.651855)" fill="#815337"/>
<rect width="25.9452" height="3.54439" rx="1.7722" transform="matrix(-0.372009 0.928229 0.928229 0.372009 26.0673 15.8167)" fill="#D9D9D9"/>
<rect width="8.86098" height="1.52619" rx="0.763094" transform="matrix(-0.928229 -0.372009 -0.372009 0.928229 30.6893 20.9575)" fill="#D9D9D9"/>
<rect width="8.86098" height="1.52619" rx="0.763094" transform="matrix(-0.928229 -0.372009 -0.372009 0.928229 27.4247 29.1033)" fill="#D9D9D9"/>
<rect width="8.86098" height="1.52619" rx="0.763094" transform="matrix(-0.928229 -0.372009 -0.372009 0.928229 28.8441 25.5616)" fill="#D9D9D9"/>
<rect width="8.86098" height="1.52619" rx="0.763094" transform="matrix(-0.928229 -0.372009 -0.372009 0.928229 26.0053 32.6449)" fill="#D9D9D9"/>
<rect width="8.86098" height="1.52619" rx="0.763094" transform="matrix(-0.928229 -0.372009 -0.372009 0.928229 24.302 36.8948)" fill="#D9D9D9"/>
</svg>
