<svg width="58" height="48" viewBox="0 0 58 48" fill="none" xmlns="http://www.w3.org/2000/svg">
<ellipse cx="24.8009" cy="13.2913" rx="24.8009" ry="13.2913" transform="matrix(-0.876165 -0.482011 -0.479715 0.877424 57.4325 24.468)" fill="#815337"/>
<rect width="25.9452" height="3.54439" rx="1.7722" transform="matrix(-0.881005 -0.473108 -0.473108 0.881005 41.6636 29.0084)" fill="#D9D9D9"/>
<rect width="8.86098" height="1.52619" rx="0.763094" transform="matrix(0.473108 -0.881005 -0.881005 -0.473108 36.0399 33.0289)" fill="#D9D9D9"/>
<rect width="8.86098" height="1.52619" rx="0.763094" transform="matrix(0.473108 -0.881005 -0.881005 -0.473108 28.3085 28.8771)" fill="#D9D9D9"/>
<rect width="8.86098" height="1.52619" rx="0.763094" transform="matrix(0.473108 -0.881005 -0.881005 -0.473108 31.67 30.6823)" fill="#D9D9D9"/>
<rect width="8.86098" height="1.52619" rx="0.763094" transform="matrix(0.473108 -0.881005 -0.881005 -0.473108 24.9471 27.072)" fill="#D9D9D9"/>
<rect width="8.86098" height="1.52619" rx="0.763094" transform="matrix(0.473108 -0.881005 -0.881005 -0.473108 20.9134 24.9058)" fill="#D9D9D9"/>
</svg>
