<svg width="56" height="54" viewBox="0 0 56 54" fill="none" xmlns="http://www.w3.org/2000/svg">
<ellipse cx="24.8009" cy="13.2913" rx="24.8009" ry="13.2913" transform="matrix(-0.757412 0.652937 0.654918 0.7557 38.086 0.501831)" fill="#815337"/>
<rect width="25.9452" height="3.54439" rx="1.7722" transform="matrix(-0.750757 0.660578 0.660578 0.750757 36.8394 16.864)" fill="#D9D9D9"/>
<rect width="8.86098" height="1.52619" rx="0.763094" transform="matrix(-0.660578 -0.750757 -0.750757 0.660578 38.6451 23.5371)" fill="#D9D9D9"/>
<rect width="8.86098" height="1.52619" rx="0.763094" transform="matrix(-0.660578 -0.750757 -0.750757 0.660578 32.0568 29.3341)" fill="#D9D9D9"/>
<rect width="8.86098" height="1.52619" rx="0.763094" transform="matrix(-0.660578 -0.750757 -0.750757 0.660578 34.9213 26.8136)" fill="#D9D9D9"/>
<rect width="8.86098" height="1.52619" rx="0.763094" transform="matrix(-0.660578 -0.750757 -0.750757 0.660578 29.1923 31.8545)" fill="#D9D9D9"/>
<rect width="8.86098" height="1.52619" rx="0.763094" transform="matrix(-0.660578 -0.750757 -0.750757 0.660578 25.7549 34.8789)" fill="#D9D9D9"/>
</svg>
