<svg width="35" height="54" viewBox="0 0 35 54" fill="none" xmlns="http://www.w3.org/2000/svg">
<ellipse cx="24.8009" cy="13.2913" rx="24.8009" ry="13.2913" transform="matrix(-0.162196 0.986759 0.98718 0.159612 8.18008 0.630127)" fill="#815337"/>
<rect width="25.9452" height="3.54439" rx="1.7722" transform="matrix(-0.152189 0.988351 0.988351 0.152189 17.7198 13.9819)" fill="#D9D9D9"/>
<rect width="8.86098" height="1.52619" rx="0.763094" transform="matrix(-0.988351 -0.152189 -0.152189 0.988351 23.3857 17.9427)" fill="#D9D9D9"/>
<rect width="8.86098" height="1.52619" rx="0.763094" transform="matrix(-0.988351 -0.152189 -0.152189 0.988351 22.0501 26.6161)" fill="#D9D9D9"/>
<rect width="8.86098" height="1.52619" rx="0.763094" transform="matrix(-0.988351 -0.152189 -0.152189 0.988351 22.6308 22.8451)" fill="#D9D9D9"/>
<rect width="8.86098" height="1.52619" rx="0.763094" transform="matrix(-0.988351 -0.152189 -0.152189 0.988351 21.4694 30.3871)" fill="#D9D9D9"/>
<rect width="8.86098" height="1.52619" rx="0.763094" transform="matrix(-0.988351 -0.152189 -0.152189 0.988351 20.7726 34.9124)" fill="#D9D9D9"/>
</svg>
