<svg width="51" height="29" viewBox="0 0 51 29" fill="none" xmlns="http://www.w3.org/2000/svg">
<ellipse cx="24.8009" cy="13.2913" rx="24.8009" ry="13.2913" transform="matrix(-0.999997 -0.00219582 0.00042209 1 50.1388 1.47412)" fill="#815337"/>
<rect width="25.9452" height="3.54439" rx="1.7722" transform="matrix(-0.999968 0.00793731 0.00793731 0.999968 38.4857 13.0275)" fill="#D9D9D9"/>
<rect width="8.86098" height="1.52619" rx="0.763094" transform="matrix(-0.00793731 -0.999968 -0.999968 0.00793731 35.4826 19.2542)" fill="#D9D9D9"/>
<rect width="8.86098" height="1.52619" rx="0.763094" transform="matrix(-0.00793731 -0.999968 -0.999968 0.00793731 26.7073 19.3239)" fill="#D9D9D9"/>
<rect width="8.86098" height="1.52619" rx="0.763094" transform="matrix(-0.00793731 -0.999968 -0.999968 0.00793731 30.5227 19.2936)" fill="#D9D9D9"/>
<rect width="8.86098" height="1.52619" rx="0.763094" transform="matrix(-0.00793731 -0.999968 -0.999968 0.00793731 22.892 19.3541)" fill="#D9D9D9"/>
<rect width="8.86098" height="1.52619" rx="0.763094" transform="matrix(-0.00793731 -0.999968 -0.999968 0.00793731 18.3136 19.3905)" fill="#D9D9D9"/>
</svg>
