<svg width="51" height="57" viewBox="0 0 51 57" fill="none" xmlns="http://www.w3.org/2000/svg">
<ellipse cx="24.8009" cy="13.2913" rx="24.8009" ry="13.2913" transform="matrix(-0.562109 -0.827063 -0.825589 0.564272 50.3469 41.538)" fill="#815337"/>
<rect width="25.9452" height="3.54439" rx="1.7722" transform="matrix(-0.570461 -0.821325 -0.821325 0.570461 34.2344 38.4298)" fill="#D9D9D9"/>
<rect width="8.86098" height="1.52619" rx="0.763094" transform="matrix(0.821325 -0.570461 -0.570461 -0.821325 27.3987 39.4612)" fill="#D9D9D9"/>
<rect width="8.86098" height="1.52619" rx="0.763094" transform="matrix(0.821325 -0.570461 -0.570461 -0.821325 22.3926 32.2535)" fill="#D9D9D9"/>
<rect width="8.86098" height="1.52619" rx="0.763094" transform="matrix(0.821325 -0.570461 -0.570461 -0.821325 24.5691 35.3873)" fill="#D9D9D9"/>
<rect width="8.86098" height="1.52619" rx="0.763094" transform="matrix(0.821325 -0.570461 -0.570461 -0.821325 20.216 29.1199)" fill="#D9D9D9"/>
<rect width="8.86098" height="1.52619" rx="0.763094" transform="matrix(0.821325 -0.570461 -0.570461 -0.821325 17.6041 25.3594)" fill="#D9D9D9"/>
</svg>
